<svg xmlns="http://www.w3.org/2000/svg" width="26" height="26" fill="none" viewBox="0 0 26 26">
    <path stroke="#7D7D7D" stroke-linecap="round" stroke-linejoin="round" stroke-width="2" d="M11.917 4.333H4.333c-.574 0-1.125.229-1.532.635-.406.406-.634.957-.634 1.532v15.167c0 .574.228 1.125.634 1.532.407.406.958.634 1.532.634H19.5c.575 0 1.126-.228 1.532-.634.407-.407.635-.958.635-1.532v-7.584"/>
    <path stroke="#7D7D7D" stroke-linecap="round" stroke-linejoin="round" stroke-width="2" d="M20.042 2.708c.43-.43 1.015-.673 1.625-.673.61 0 1.194.242 1.625.673.43.431.673 1.016.673 1.625 0 .61-.242 1.194-.673 1.625L13 16.25l-4.333 1.083L9.75 13 20.042 2.708z"/>
</svg>
