<svg xmlns="http://www.w3.org/2000/svg" width="22" height="22" fill="none" viewBox="0 0 22 22">
    <path stroke="#7D7D7D" stroke-linecap="round" stroke-linejoin="round" stroke-width="2" d="M20.888 15.92v3c.001.279-.056.554-.167.81-.112.255-.276.484-.48.672-.206.188-.448.332-.712.42-.264.09-.544.123-.82.098-3.078-.334-6.034-1.386-8.63-3.07-2.417-1.535-4.466-3.584-6-6-1.69-2.609-2.743-5.579-3.07-8.67-.026-.276.007-.555.096-.818.088-.263.23-.505.418-.71.187-.205.415-.37.669-.481.254-.113.528-.17.806-.17h3c.485-.006.956.166 1.324.483.368.316.608.756.676 1.236.127.96.362 1.903.7 2.81.135.358.164.747.084 1.121s-.265.717-.534.99l-1.27 1.27c1.424 2.503 3.497 4.575 6 6l1.27-1.27c.272-.27.615-.455.99-.535.373-.08.762-.05 1.12.084.907.339 1.85.574 2.81.7.486.069.93.313 1.247.688.317.374.485.852.473 1.342z"/>
</svg>
